%TF.GenerationSoftware,KiCad,Pcbnew,7.0.10-7.0.10~ubuntu22.04.1*%
%TF.CreationDate,2024-01-14T00:42:47+02:00*%
%TF.ProjectId,Power Control Circuit,506f7765-7220-4436-9f6e-74726f6c2043,rev?*%
%TF.SameCoordinates,Original*%
%TF.FileFunction,Copper,L1,Top*%
%TF.FilePolarity,Positive*%
%FSLAX46Y46*%
G04 Gerber Fmt 4.6, Leading zero omitted, Abs format (unit mm)*
G04 Created by KiCad (PCBNEW 7.0.10-7.0.10~ubuntu22.04.1) date 2024-01-14 00:42:47*
%MOMM*%
%LPD*%
G01*
G04 APERTURE LIST*
G04 Aperture macros list*
%AMRoundRect*
0 Rectangle with rounded corners*
0 $1 Rounding radius*
0 $2 $3 $4 $5 $6 $7 $8 $9 X,Y pos of 4 corners*
0 Add a 4 corners polygon primitive as box body*
4,1,4,$2,$3,$4,$5,$6,$7,$8,$9,$2,$3,0*
0 Add four circle primitives for the rounded corners*
1,1,$1+$1,$2,$3*
1,1,$1+$1,$4,$5*
1,1,$1+$1,$6,$7*
1,1,$1+$1,$8,$9*
0 Add four rect primitives between the rounded corners*
20,1,$1+$1,$2,$3,$4,$5,0*
20,1,$1+$1,$4,$5,$6,$7,0*
20,1,$1+$1,$6,$7,$8,$9,0*
20,1,$1+$1,$8,$9,$2,$3,0*%
G04 Aperture macros list end*
%TA.AperFunction,ComponentPad*%
%ADD10C,1.600000*%
%TD*%
%TA.AperFunction,ComponentPad*%
%ADD11O,1.600000X1.600000*%
%TD*%
%TA.AperFunction,ComponentPad*%
%ADD12R,1.500000X1.050000*%
%TD*%
%TA.AperFunction,ComponentPad*%
%ADD13O,1.500000X1.050000*%
%TD*%
%TA.AperFunction,ComponentPad*%
%ADD14R,2.000000X1.905000*%
%TD*%
%TA.AperFunction,ComponentPad*%
%ADD15O,2.000000X1.905000*%
%TD*%
%TA.AperFunction,ComponentPad*%
%ADD16RoundRect,0.250000X0.750000X-0.600000X0.750000X0.600000X-0.750000X0.600000X-0.750000X-0.600000X0*%
%TD*%
%TA.AperFunction,ComponentPad*%
%ADD17O,2.000000X1.700000*%
%TD*%
%TA.AperFunction,ComponentPad*%
%ADD18R,1.600000X1.600000*%
%TD*%
%TA.AperFunction,ComponentPad*%
%ADD19C,1.440000*%
%TD*%
%TA.AperFunction,ComponentPad*%
%ADD20C,2.400000*%
%TD*%
%TA.AperFunction,ComponentPad*%
%ADD21O,2.400000X2.400000*%
%TD*%
%TA.AperFunction,ComponentPad*%
%ADD22R,2.400000X1.600000*%
%TD*%
%TA.AperFunction,ComponentPad*%
%ADD23O,2.400000X1.600000*%
%TD*%
%TA.AperFunction,ComponentPad*%
%ADD24RoundRect,0.250000X0.600000X0.750000X-0.600000X0.750000X-0.600000X-0.750000X0.600000X-0.750000X0*%
%TD*%
%TA.AperFunction,ComponentPad*%
%ADD25O,1.700000X2.000000*%
%TD*%
%TA.AperFunction,ComponentPad*%
%ADD26R,3.000000X3.000000*%
%TD*%
%TA.AperFunction,ComponentPad*%
%ADD27C,3.000000*%
%TD*%
%TA.AperFunction,ComponentPad*%
%ADD28R,1.700000X1.700000*%
%TD*%
%TA.AperFunction,ComponentPad*%
%ADD29O,1.700000X1.700000*%
%TD*%
%TA.AperFunction,Conductor*%
%ADD30C,0.800000*%
%TD*%
%TA.AperFunction,Conductor*%
%ADD31C,2.500000*%
%TD*%
%TA.AperFunction,Profile*%
%ADD32C,0.100000*%
%TD*%
G04 APERTURE END LIST*
D10*
X74976000Y-117611200D03*
D11*
X67356000Y-117611200D03*
D12*
X86775200Y-132029200D03*
D13*
X86775200Y-130759200D03*
X86775200Y-129489200D03*
D10*
X82499200Y-129692400D03*
D11*
X82499200Y-137312400D03*
D14*
X139954000Y-129489200D03*
D15*
X139954000Y-132029200D03*
X139954000Y-134569200D03*
D16*
X48107600Y-130211200D03*
D17*
X48107600Y-127711200D03*
D18*
X72298400Y-134671400D03*
D11*
X72298400Y-137211400D03*
X79918400Y-137211400D03*
X79918400Y-134671400D03*
D16*
X63601600Y-130098800D03*
D17*
X63601600Y-127598800D03*
D10*
X67356000Y-131592000D03*
D11*
X74976000Y-131592000D03*
D10*
X44958000Y-131724400D03*
D11*
X37338000Y-131724400D03*
D18*
X72288400Y-140360400D03*
D11*
X72288400Y-142900400D03*
X79908400Y-142900400D03*
X79908400Y-140360400D03*
D19*
X41351200Y-143764000D03*
X43891200Y-143764000D03*
X46431200Y-143764000D03*
D20*
X108559600Y-145084800D03*
D21*
X136499600Y-145084800D03*
D10*
X37287200Y-126238000D03*
D11*
X44907200Y-126238000D03*
D14*
X123494800Y-129489200D03*
D15*
X123494800Y-132029200D03*
X123494800Y-134569200D03*
D10*
X67356000Y-123097600D03*
D11*
X74976000Y-123097600D03*
D12*
X86775200Y-143002000D03*
D13*
X86775200Y-141732000D03*
X86775200Y-140462000D03*
D12*
X86055200Y-145948400D03*
D13*
X86055200Y-147218400D03*
X86055200Y-148488400D03*
D14*
X90728800Y-129387600D03*
D15*
X90728800Y-131927600D03*
X90728800Y-134467600D03*
D22*
X52324000Y-122580400D03*
D23*
X52324000Y-125120400D03*
X52324000Y-127660400D03*
X52324000Y-130200400D03*
X52324000Y-132740400D03*
X52324000Y-135280400D03*
X52324000Y-137820400D03*
X52324000Y-140360400D03*
X52324000Y-142900400D03*
X59944000Y-142900400D03*
X59944000Y-140360400D03*
X59944000Y-137820400D03*
X59944000Y-135280400D03*
X59944000Y-132740400D03*
X59944000Y-130200400D03*
X59944000Y-127660400D03*
X59944000Y-125120400D03*
X59944000Y-122580400D03*
D14*
X105228600Y-147828000D03*
D15*
X105228600Y-145288000D03*
X105228600Y-142748000D03*
D24*
X58369200Y-118821200D03*
D25*
X55869200Y-118821200D03*
D10*
X74976000Y-126105600D03*
D11*
X67356000Y-126105600D03*
D10*
X70104000Y-134625600D03*
D11*
X62484000Y-134625600D03*
D26*
X146913600Y-121158000D03*
D27*
X151993600Y-121158000D03*
D16*
X63596800Y-121584400D03*
D17*
X63596800Y-119084400D03*
D26*
X143814800Y-145237200D03*
D27*
X148894800Y-145237200D03*
D10*
X56134000Y-152196800D03*
D11*
X63754000Y-152196800D03*
D12*
X86055200Y-134975600D03*
D13*
X86055200Y-136245600D03*
X86055200Y-137515600D03*
D14*
X107086400Y-129438400D03*
D15*
X107086400Y-131978400D03*
X107086400Y-134518400D03*
D10*
X82499200Y-147878800D03*
D11*
X82499200Y-140258800D03*
D10*
X70104000Y-140264400D03*
D11*
X62484000Y-140264400D03*
D26*
X141427200Y-121158000D03*
D27*
X136347200Y-121158000D03*
D28*
X38303200Y-148234400D03*
D29*
X40843200Y-148234400D03*
X43383200Y-148234400D03*
X45923200Y-148234400D03*
X48463200Y-148234400D03*
X51003200Y-148234400D03*
X53543200Y-148234400D03*
X56083200Y-148234400D03*
X58623200Y-148234400D03*
X61163200Y-148234400D03*
X63703200Y-148234400D03*
X66243200Y-148234400D03*
D30*
X52313200Y-130211200D02*
X52324000Y-130200400D01*
X48107600Y-130211200D02*
X52313200Y-130211200D01*
X46594400Y-131724400D02*
X48107600Y-130211200D01*
X44958000Y-131724400D02*
X46594400Y-131724400D01*
X44907200Y-126238000D02*
X46634400Y-126238000D01*
X46634400Y-126238000D02*
X48107600Y-127711200D01*
D31*
X154943600Y-119937883D02*
X153115717Y-118110000D01*
D30*
X86775200Y-129489200D02*
X82702400Y-129489200D01*
X77508400Y-134683200D02*
X82499200Y-129692400D01*
X86775200Y-129489200D02*
X95106400Y-121158000D01*
X86055200Y-148488400D02*
X83108800Y-148488400D01*
X83108800Y-148488400D02*
X82499200Y-147878800D01*
X95106400Y-121158000D02*
X136347200Y-121158000D01*
D31*
X149961600Y-118110000D02*
X146913600Y-118110000D01*
X149961600Y-118110000D02*
X153115717Y-118110000D01*
X154943600Y-139188400D02*
X154943600Y-119937883D01*
X148894800Y-145237200D02*
X154943600Y-139188400D01*
X146913600Y-121158000D02*
X143865600Y-118110000D01*
X146913600Y-121158000D02*
X146913600Y-118110000D01*
X139395200Y-118110000D02*
X136347200Y-121158000D01*
D30*
X77508400Y-142888000D02*
X77508400Y-134683200D01*
D31*
X146913600Y-118110000D02*
X139395200Y-118110000D01*
D30*
X82499200Y-147878800D02*
X77508400Y-142888000D01*
D31*
X146913600Y-121158000D02*
X149961600Y-118110000D01*
X143865600Y-118110000D02*
X139395200Y-118110000D01*
D30*
X82702400Y-129489200D02*
X82499200Y-129692400D01*
D31*
X139954000Y-134569200D02*
X90830400Y-134569200D01*
X136499600Y-145084800D02*
X151993600Y-129590800D01*
X139954000Y-134569200D02*
X147015200Y-134569200D01*
X144475200Y-134569200D02*
X150444200Y-128600200D01*
X90830400Y-134569200D02*
X90728800Y-134467600D01*
X151993600Y-127050800D02*
X151993600Y-121158000D01*
X147015200Y-134569200D02*
X151993600Y-129590800D01*
X150444200Y-122707400D02*
X150444200Y-128600200D01*
X151993600Y-129590800D02*
X151993600Y-127050800D01*
X151993600Y-121158000D02*
X150444200Y-122707400D01*
X139954000Y-134569200D02*
X144475200Y-134569200D01*
X150444200Y-128600200D02*
X151993600Y-127050800D01*
D30*
X46888400Y-156819600D02*
X38303200Y-148234400D01*
X46431200Y-143764000D02*
X46431200Y-138633200D01*
X64160400Y-116179600D02*
X68058000Y-116179600D01*
X48463200Y-145796000D02*
X46431200Y-143764000D01*
X72288400Y-142900400D02*
X72288400Y-149996028D01*
X52324000Y-132740400D02*
X51596399Y-133468001D01*
X74976000Y-123097600D02*
X73576000Y-124497600D01*
X55869200Y-118821200D02*
X55869200Y-129195200D01*
X55869200Y-118821200D02*
X55869200Y-119817458D01*
X72298400Y-137211400D02*
X74976000Y-134533800D01*
X55869200Y-119817458D02*
X56472942Y-120421200D01*
X73576000Y-124497600D02*
X73576000Y-130192000D01*
X73688400Y-141500400D02*
X72288400Y-142900400D01*
X56472942Y-120421200D02*
X59918800Y-120421200D01*
X62309200Y-144300400D02*
X58905600Y-144300400D01*
X48463200Y-148234400D02*
X48463200Y-145796000D01*
X73576000Y-130192000D02*
X74976000Y-131592000D01*
X51596399Y-133468001D02*
X39081601Y-133468001D01*
X55869200Y-141264000D02*
X55869200Y-129195200D01*
X58905600Y-144300400D02*
X55869200Y-141264000D01*
X74976000Y-134533800D02*
X74976000Y-131592000D01*
X72288400Y-149996028D02*
X65464828Y-156819600D01*
X66243200Y-148234400D02*
X62309200Y-144300400D01*
X59918800Y-120421200D02*
X64160400Y-116179600D01*
X72298400Y-137211400D02*
X73688400Y-138601400D01*
X39081601Y-133468001D02*
X37338000Y-131724400D01*
X65464828Y-156819600D02*
X46888400Y-156819600D01*
X55869200Y-129195200D02*
X52324000Y-132740400D01*
X73688400Y-138601400D02*
X73688400Y-141500400D01*
X68058000Y-116179600D02*
X74976000Y-123097600D01*
X46431200Y-138633200D02*
X51596399Y-133468001D01*
X59708800Y-155771600D02*
X56134000Y-152196800D01*
X68427600Y-138596414D02*
X68427600Y-145499386D01*
X62571586Y-132740400D02*
X68427600Y-138596414D01*
X46302753Y-117222447D02*
X56770447Y-117222447D01*
X76376000Y-124705600D02*
X74976000Y-126105600D01*
X72544400Y-115179600D02*
X74976000Y-117611200D01*
X56134000Y-152196800D02*
X44805600Y-152196800D01*
X70037201Y-150833013D02*
X65098614Y-155771600D01*
X37287200Y-126238000D02*
X35938000Y-127587200D01*
X74976000Y-117611200D02*
X76376000Y-119011200D01*
X58369200Y-118821200D02*
X62010800Y-115179600D01*
X62010800Y-115179600D02*
X72544400Y-115179600D01*
X70037200Y-147108986D02*
X70037201Y-150833013D01*
X68427600Y-145499386D02*
X70037200Y-147108986D01*
X40843200Y-148234400D02*
X40843200Y-144272000D01*
X35938000Y-138350800D02*
X41351200Y-143764000D01*
X44805600Y-152196800D02*
X40843200Y-148234400D01*
X37287200Y-126238000D02*
X46302753Y-117222447D01*
X40843200Y-144272000D02*
X41351200Y-143764000D01*
X59944000Y-132740400D02*
X62571586Y-132740400D01*
X56770447Y-117222447D02*
X58369200Y-118821200D01*
X35938000Y-127587200D02*
X35938000Y-138350800D01*
X76376000Y-119011200D02*
X76376000Y-124705600D01*
X65098614Y-155771600D02*
X59708800Y-155771600D01*
X43383200Y-148234400D02*
X43383200Y-144272000D01*
X43383200Y-144272000D02*
X43891200Y-143764000D01*
X63178400Y-141664400D02*
X61248000Y-141664400D01*
X69037200Y-147523200D02*
X63178400Y-141664400D01*
X45923200Y-148234400D02*
X48368545Y-150679745D01*
X61248000Y-141664400D02*
X59944000Y-140360400D01*
X56685856Y-150679744D02*
X60777712Y-154771600D01*
X69037200Y-150418800D02*
X69037200Y-147523200D01*
X64684400Y-154771600D02*
X69037200Y-150418800D01*
X48368545Y-150679745D02*
X56685856Y-150679744D01*
X60777712Y-154771600D02*
X64684400Y-154771600D01*
X64151986Y-153771600D02*
X67868800Y-150054786D01*
X67868800Y-147811038D02*
X62958162Y-142900400D01*
X61671200Y-152124126D02*
X63318674Y-153771600D01*
X67868800Y-150054786D02*
X67868800Y-147811038D01*
X59763744Y-149679744D02*
X61671200Y-151587200D01*
X52448544Y-149679744D02*
X59763744Y-149679744D01*
X63318674Y-153771600D02*
X64151986Y-153771600D01*
X62958162Y-142900400D02*
X59944000Y-142900400D01*
X61671200Y-151587200D02*
X61671200Y-152124126D01*
X51003200Y-148234400D02*
X52448544Y-149679744D01*
X48495199Y-139109201D02*
X52324000Y-135280400D01*
X51609201Y-146300401D02*
X50522788Y-146300402D01*
X53543200Y-148234400D02*
X51609201Y-146300401D01*
X48495199Y-144272813D02*
X48495199Y-139109201D01*
X50522788Y-146300402D02*
X48495199Y-144272813D01*
X49495199Y-143858599D02*
X50937001Y-145300401D01*
X56083200Y-147218400D02*
X56083200Y-148234400D01*
X54274986Y-145300400D02*
X56138093Y-147163507D01*
X52324000Y-137820400D02*
X49495200Y-140649200D01*
X49495200Y-140649200D02*
X49495199Y-143858599D01*
X50937001Y-145300401D02*
X54274986Y-145300400D01*
X56138093Y-147163507D02*
X56083200Y-147218400D01*
X51351214Y-144300400D02*
X50495200Y-143444386D01*
X50495200Y-142189200D02*
X52324000Y-140360400D01*
X50495200Y-143444386D02*
X50495200Y-142189200D01*
X54689200Y-144300400D02*
X51351214Y-144300400D01*
X58623200Y-148234400D02*
X54689200Y-144300400D01*
X55829200Y-142900400D02*
X52324000Y-142900400D01*
X61163200Y-148234400D02*
X55829200Y-142900400D01*
X63703200Y-152146000D02*
X63754000Y-152196800D01*
X63703200Y-148234400D02*
X63703200Y-152146000D01*
D31*
X137922000Y-129387600D02*
X139852400Y-129387600D01*
X139395200Y-123190000D02*
X139395200Y-127914400D01*
X141427200Y-128016000D02*
X139954000Y-129489200D01*
X141427200Y-121158000D02*
X139395200Y-123190000D01*
X141427200Y-121158000D02*
X141427200Y-128016000D01*
X139395200Y-127914400D02*
X137922000Y-129387600D01*
X139852400Y-129387600D02*
X139954000Y-129489200D01*
X90728800Y-129387600D02*
X137922000Y-129387600D01*
D30*
X63500000Y-130200400D02*
X63601600Y-130098800D01*
X65862800Y-130098800D02*
X67356000Y-131592000D01*
X63601600Y-130098800D02*
X65862800Y-130098800D01*
X59944000Y-130200400D02*
X63500000Y-130200400D01*
X63601600Y-127598800D02*
X65862800Y-127598800D01*
X65862800Y-127598800D02*
X67356000Y-126105600D01*
X60040000Y-137820400D02*
X62484000Y-140264400D01*
X59944000Y-137820400D02*
X60040000Y-137820400D01*
X59944000Y-135280400D02*
X61829200Y-135280400D01*
X61829200Y-135280400D02*
X62484000Y-134625600D01*
X63596800Y-124007600D02*
X63596800Y-121584400D01*
X59944000Y-127660400D02*
X63596800Y-124007600D01*
X65842800Y-121584400D02*
X67356000Y-123097600D01*
X63596800Y-121584400D02*
X65842800Y-121584400D01*
D31*
X106346200Y-141630400D02*
X105266748Y-142709852D01*
D30*
X81492600Y-138785600D02*
X79918400Y-137211400D01*
X86055200Y-138785600D02*
X86055200Y-139742000D01*
X79918400Y-137211400D02*
X78508400Y-138621400D01*
D31*
X143814800Y-145237200D02*
X140055600Y-148996400D01*
D30*
X86055200Y-139742000D02*
X86775200Y-140462000D01*
X86775200Y-140462000D02*
X102942600Y-140462000D01*
X78508400Y-138621400D02*
X78508400Y-141500400D01*
X102942600Y-140462000D02*
X105228600Y-142748000D01*
X86055200Y-138785600D02*
X81492600Y-138785600D01*
X78508400Y-141500400D02*
X79908400Y-142900400D01*
X86055200Y-137515600D02*
X86055200Y-138785600D01*
D31*
X120954800Y-141630400D02*
X106346200Y-141630400D01*
X140055600Y-148996400D02*
X128320800Y-148996400D01*
X128320800Y-148996400D02*
X120954800Y-141630400D01*
D30*
X86775200Y-143002000D02*
X102942600Y-143002000D01*
X86775200Y-143002000D02*
X86775200Y-145228400D01*
X86775200Y-145228400D02*
X86055200Y-145948400D01*
X102942600Y-143002000D02*
X105228600Y-145288000D01*
X83972400Y-145989128D02*
X83972400Y-141732000D01*
X85201672Y-147218400D02*
X83972400Y-145989128D01*
X86055200Y-147218400D02*
X85201672Y-147218400D01*
X82499200Y-140258800D02*
X80010000Y-140258800D01*
X80010000Y-140258800D02*
X79908400Y-140360400D01*
X83972400Y-141732000D02*
X86775200Y-141732000D01*
X82499200Y-140258800D02*
X83972400Y-141732000D01*
D31*
X108559600Y-145084800D02*
X108559600Y-146279681D01*
X108559600Y-146279681D02*
X107011281Y-147828000D01*
X107011281Y-147828000D02*
X105228600Y-147828000D01*
D30*
X86055200Y-134975600D02*
X86055200Y-132749200D01*
X139903200Y-131978400D02*
X139954000Y-132029200D01*
X107035600Y-131927600D02*
X107086400Y-131978400D01*
X86055200Y-132749200D02*
X86775200Y-132029200D01*
X86826000Y-131978400D02*
X86775200Y-132029200D01*
X86775200Y-132029200D02*
X139954000Y-132029200D01*
X79918400Y-134671400D02*
X79918400Y-134731600D01*
X85921672Y-130759200D02*
X83566000Y-133114872D01*
X83566000Y-133114872D02*
X83566000Y-136245600D01*
X86775200Y-130759200D02*
X85921672Y-130759200D01*
X79918400Y-134731600D02*
X82499200Y-137312400D01*
X83566000Y-136245600D02*
X86055200Y-136245600D01*
X82499200Y-137312400D02*
X83566000Y-136245600D01*
X70104000Y-140264400D02*
X72192400Y-140264400D01*
X72192400Y-140264400D02*
X72288400Y-140360400D01*
X70104000Y-134625600D02*
X72252600Y-134625600D01*
X72252600Y-134625600D02*
X72298400Y-134671400D01*
X63596800Y-119084400D02*
X65882800Y-119084400D01*
X65882800Y-119084400D02*
X67356000Y-117611200D01*
D32*
X35179000Y-157683200D02*
X157480000Y-157784800D01*
X35204400Y-114401600D02*
X156514800Y-114452400D01*
X35179000Y-157683200D02*
X35204400Y-114401600D01*
X156514800Y-114452400D02*
X156514800Y-157784800D01*
M02*
